<svg xmlns="http://www.w3.org/2000/svg" xmlns:xlink="http://www.w3.org/1999/xlink" contentStyleType="text/css" data-diagram-type="DESCRIPTION" height="1100px" preserveAspectRatio="none" style="width:1614px;height:1100px;background:#FFFFFF;" version="1.1" viewBox="0 0 1614 1100" width="1614px" zoomAndPan="magnify"><?plantuml 1.2026.3beta6?><defs/><g><!--cluster App Flutter--><g class="cluster" data-qualified-name="App Flutter" data-source-line="7" id="ent0002"><rect fill="none" height="366.59" rx="6" ry="6" style="stroke:#181818;stroke-width:1;" width="401" x="1199" y="7"/><text fill="#000000" font-family="sans-serif" font-size="14" font-weight="700" lengthAdjust="spacing" textLength="89.8652" x="1354.5674" y="21.9951">App Flutter</text></g><!--cluster AuthBackend--><g class="cluster" data-qualified-name="AuthBackend" data-source-line="18" id="ent0010"><polygon fill="none" points="807,490.79,817,480.79,1112,480.79,1112,1065.33,1102,1075.33,807,1075.33,807,490.79" style="stroke:#181818;stroke-width:1;"/><line style="stroke:#181818;stroke-width:1;" x1="1102" x2="1112" y1="490.79" y2="480.79"/><line style="stroke:#181818;stroke-width:1;" x1="807" x2="1102" y1="490.79" y2="490.79"/><line style="stroke:#181818;stroke-width:1;" x1="1102" x2="1102" y1="490.79" y2="1075.33"/><text fill="#000000" font-family="sans-serif" font-size="14" font-weight="700" lengthAdjust="spacing" textLength="163.0576" x="873.9712" y="506.7851">API de autenticaci&#243;n</text><text fill="#000000" font-family="sans-serif" font-size="14" font-weight="700" lengthAdjust="spacing" textLength="229.9609" x="840.5195" y="523.082">backend/almeria_auth_api.py</text></g><!--cluster MySql--><g class="cluster" data-qualified-name="MySql" data-source-line="24" id="ent0014"><path d="M6,746.74 C6,736.74 356,736.74 356,736.74 C356,736.74 706,736.74 706,746.74 L706,912.03 C706,922.03 356,922.03 356,922.03 C356,922.03 6,922.03 6,912.03 L6,746.74" fill="none" style="stroke:#181818;stroke-width:1;"/><path d="M6,746.74 C6,756.74 356,756.74 356,756.74 C356,756.74 706,756.74 706,746.74" fill="none" style="stroke:#181818;stroke-width:1;"/><text fill="#000000" font-family="sans-serif" font-size="14" font-weight="700" lengthAdjust="spacing" textLength="53.9629" x="329.0186" y="771.7351">MySQL</text></g><!--cluster users_table--><g class="cluster" data-qualified-name="MySql.users_table" data-source-line="25" id="ent0015"><path d="M44,802.74 L128.4873,802.74 A9,9 0 0 1 134.4873,808.74 L141.4873,825.0369 L162,825.0369 A6,6 0 0 1 168,831.0369 L168,884.03 A6,6 0 0 1 162,890.03 L44,890.03 A6,6 0 0 1 38,884.03 L38,808.74 A6,6 0 0 1 44,802.74" fill="none" style="stroke:#000000;stroke-width:1.5;"/><line style="stroke:#000000;stroke-width:1.5;" x1="38" x2="141.4873" y1="825.0369" y2="825.0369"/><text fill="#000000" font-family="sans-serif" font-size="14" font-weight="700" lengthAdjust="spacing" textLength="90.4873" x="42" y="817.7351">users_table</text></g><!--cluster app_notifications_table--><g class="cluster" data-qualified-name="MySql.app_notifications_table" data-source-line="28" id="ent0017"><path d="M198,802.74 L375.0664,802.74 A9,9 0 0 1 381.0664,808.74 L388.0664,825.0369 L398,825.0369 A6,6 0 0 1 404,831.0369 L404,884.03 A6,6 0 0 1 398,890.03 L198,890.03 A6,6 0 0 1 192,884.03 L192,808.74 A6,6 0 0 1 198,802.74" fill="none" style="stroke:#000000;stroke-width:1.5;"/><line style="stroke:#000000;stroke-width:1.5;" x1="192" x2="388.0664" y1="825.0369" y2="825.0369"/><text fill="#000000" font-family="sans-serif" font-size="14" font-weight="700" lengthAdjust="spacing" textLength="183.0664" x="196" y="817.7351">app_notifications_table</text></g><!--cluster user_transport_profile_table--><g class="cluster" data-qualified-name="MySql.user_transport_profile_table" data-source-line="31" id="ent0019"><path d="M434,802.74 L650.4619,802.74 A9,9 0 0 1 656.4619,808.74 L663.4619,825.0369 L660,825.0369 A6,6 0 0 1 666,831.0369 L666,884.03 A6,6 0 0 1 660,890.03 L434,890.03 A6,6 0 0 1 428,884.03 L428,808.74 A6,6 0 0 1 434,802.74" fill="none" style="stroke:#000000;stroke-width:1.5;"/><line style="stroke:#000000;stroke-width:1.5;" x1="428" x2="663.4619" y1="825.0369" y2="825.0369"/><text fill="#000000" font-family="sans-serif" font-size="14" font-weight="700" lengthAdjust="spacing" textLength="222.4619" x="432" y="817.7351">user_transport_profile_table</text></g><!--entity AuthScreen--><g class="entity" data-qualified-name="App Flutter.AuthScreen" data-source-line="8" id="ent0003"><rect fill="#F1F1F1" height="36.2969" rx="6" ry="6" style="stroke:#181818;stroke-width:0.5;" width="101.252" x="1228.37" y="42"/><text fill="#000000" font-family="sans-serif" font-size="14" lengthAdjust="spacing" textLength="81.252" x="1238.37" y="64.9951">AuthScreen</text></g><!--entity AuthVM--><g class="entity" data-qualified-name="App Flutter.AuthVM" data-source-line="9" id="ent0004"><rect fill="#F1F1F1" height="36.2969" rx="6" ry="6" style="stroke:#181818;stroke-width:0.5;" width="128.377" x="1214.81" y="183.45"/><text fill="#000000" font-family="sans-serif" font-size="14" lengthAdjust="spacing" textLength="108.377" x="1224.81" y="206.4451">AuthViewModel</text></g><!--entity AuthApiService--><g class="entity" data-qualified-name="App Flutter.AuthApiService" data-source-line="10" id="ent0005"><rect fill="#F1F1F1" height="36.2969" rx="6" ry="6" style="stroke:#181818;stroke-width:0.5;" width="126.9072" x="1216.55" y="321.29"/><text fill="#000000" font-family="sans-serif" font-size="14" lengthAdjust="spacing" textLength="106.9072" x="1226.55" y="344.2851">AuthApiService</text></g><!--entity SharedPrefs--><g class="entity" data-qualified-name="App Flutter.SharedPrefs" data-source-line="11" id="ent0006"><rect fill="#F1F1F1" height="36.2969" rx="6" ry="6" style="stroke:#181818;stroke-width:0.5;" width="152.7949" x="1378.6" y="321.29"/><text fill="#000000" font-family="sans-serif" font-size="14" lengthAdjust="spacing" textLength="132.7949" x="1388.6" y="344.2851">SharedPreferences</text></g><!--entity AuthBlueprint--><g class="entity" data-qualified-name="AuthBackend.AuthBlueprint" data-source-line="19" id="ent0011"><rect fill="#F1F1F1" height="36.2969" rx="6" ry="6" style="stroke:#181818;stroke-width:0.5;" width="120.1396" x="973.93" y="536.79"/><text fill="#000000" font-family="sans-serif" font-size="14" lengthAdjust="spacing" textLength="100.1396" x="983.93" y="559.7851">Blueprint auth</text></g><!--entity AuthService--><g class="entity" data-qualified-name="AuthBackend.AuthService" data-source-line="20" id="ent0012"><rect fill="#F1F1F1" height="36.2969" rx="6" ry="6" style="stroke:#181818;stroke-width:0.5;" width="104.5537" x="904.72" y="837.74"/><text fill="#000000" font-family="sans-serif" font-size="14" lengthAdjust="spacing" textLength="84.5537" x="914.72" y="860.7351">AuthService</text></g><!--entity AuthRepository--><g class="entity" data-qualified-name="AuthBackend.AuthRepository" data-source-line="21" id="ent0013"><rect fill="#F1F1F1" height="36.2969" rx="6" ry="6" style="stroke:#181818;stroke-width:0.5;" width="127.8848" x="905.06" y="1023.03"/><text fill="#000000" font-family="sans-serif" font-size="14" lengthAdjust="spacing" textLength="107.8848" x="915.06" y="1046.0251">AuthRepository</text></g><!--entity UsersTable--><g class="entity" data-qualified-name="MySql.users_table.UsersTable" data-source-line="26" id="ent0016"><rect fill="#F1F1F1" height="36.2969" rx="6" ry="6" style="stroke:#181818;stroke-width:0.5;" width="97.7383" x="54.13" y="837.74"/><text fill="#000000" font-family="sans-serif" font-size="14" lengthAdjust="spacing" textLength="77.7383" x="64.13" y="860.7351">users table</text></g><!--entity AppNotificationsTable--><g class="entity" data-qualified-name="MySql.app_notifications_table.AppNotificationsTable" data-source-line="29" id="ent0018"><rect fill="#F1F1F1" height="36.2969" rx="6" ry="6" style="stroke:#181818;stroke-width:0.5;" width="179.2842" x="208.36" y="837.74"/><text fill="#000000" font-family="sans-serif" font-size="14" lengthAdjust="spacing" textLength="159.2842" x="218.36" y="860.7351">app_notifications table</text></g><!--entity UserTransportProfileTable--><g class="entity" data-qualified-name="MySql.user_transport_profile_table.UserTransportProfileTable" data-source-line="32" id="ent0020"><rect fill="#F1F1F1" height="36.2969" rx="6" ry="6" style="stroke:#181818;stroke-width:0.5;" width="168.6543" x="462.67" y="837.74"/><text fill="#000000" font-family="sans-serif" font-size="14" lengthAdjust="spacing" textLength="148.6543" x="472.67" y="860.7351">user transport profile</text></g><!--entity TokenCloud--><g class="entity" data-qualified-name="TokenCloud" data-source-line="36" id="ent0021"><path d="M609.458,39.0343 C612.4141,31.5263 618.745,31.1634 623.0594,37.7208 C625.7952,30.9177 631.6342,31.5234 635.1397,36.9613 C638.153,31.7954 643.0778,31.2824 646.6637,36.3142 C650.6436,30.368 654.6357,30.8135 658.5665,36.3651 C662.4765,29.8792 668.5181,30.6711 672.2651,36.5458 C675.2645,31.5211 681.2443,30.0719 684.3253,36.4596 C688.5786,30.829 692.0228,31.6879 695.8732,36.8891 C699.871,31.997 704.5399,31.1175 708.1552,37.3129 C711.8754,31.2121 717.0547,30.9672 720.872,37.2129 C724.572,31.3095 728.9109,30.7098 733.5942,36.1058 C737.7989,30.5411 741.666,29.7959 745.6051,36.3686 C749.2078,30.2814 754.2738,31.7823 757.1028,37.1455 C761.8381,32.284 765.91,31.8189 769.5607,38.3333 C773.3413,31.1106 778.6735,31.999 782.6695,38.1217 C789.5606,39.6384 789.9827,45.8624 785.573,50.115 C792.2285,52.7802 792.8436,57.1837 787.6779,61.9512 C792.6972,66.5762 791.4648,71.4461 785.1601,73.6296 C788.5907,78.5858 788.224,82.5686 781.7937,84.4596 C778.2509,89.5992 774.2861,90.7821 770.3507,84.866 C768.565,91.0596 762.8068,91.4918 758.7329,87.4678 C755.3161,94.7054 750.2476,94.0922 745.2886,89.1734 C741.2433,94.1814 737.5315,94.7709 733.2637,89.4318 C730.486,96.0992 726.4492,96.6149 721.4172,91.747 C717.2865,97.9791 711.8492,97.0679 708.126,91.2958 C705.4238,97.3302 700.8146,97.3946 696.6605,92.8727 C691.9119,98.0867 687.4282,96.7956 684.4112,90.9541 C679.7247,97.7346 675.3231,97.297 671.5294,90.1295 C667.6159,96.4881 662.6792,95.7554 659.4392,89.4848 C655.8321,95.1562 650.2327,94.8094 647.0828,88.9929 C642.2019,93.1719 638.0954,93.2929 635.6115,86.4893 C630.0192,92.445 625.2048,93.0149 621.2762,84.8056 C617.641,89.4247 614.1114,90.2492 610.4249,84.8612 C597.8045,78.6629 597.8447,70.2918 608.1007,61.789 C598.5469,54.4487 596.8244,45.0512 609.458,39.0343" fill="#F1F1F1" style="stroke:#181818;stroke-width:0.5;"/><text fill="#000000" font-family="sans-serif" font-size="14" lengthAdjust="spacing" textLength="101.4043" x="615.88" y="56.8451">Token firmado</text><text fill="#000000" font-family="sans-serif" font-size="14" lengthAdjust="spacing" textLength="158.2451" x="615.88" y="73.142">+ validaci&#243;n de sesi&#243;n</text></g><g class="entity" data-qualified-name="GMN29" data-source-line="47" id="ent0030"><path d="M1128.96,465.14 L1128.96,550.94 L1094.52,554.94 L1128.96,558.94 L1128.96,644.7337 A6,6 0 0 0 1134.96,650.7337 L1421.0415,650.7337 A6,6 0 0 0 1427.0415,644.7337 L1427.0415,469.14 L1417.0415,459.14 L1134.96,459.14 A6,6 0 0 0 1128.96,465.14" fill="#FEFFDD" style="stroke:#181818;stroke-width:0.5;"/><path d="M1417.0415,459.14 L1417.0415,466.14 A3,3 0 0 0 1420.0415,469.14 L1427.0415,469.14 L1417.0415,459.14" fill="#FEFFDD" style="stroke:#181818;stroke-width:0.5;"/><text fill="#000000" font-family="sans-serif" font-size="13" lengthAdjust="spacing" textLength="143.9521" x="1134.96" y="476.2069">Endpoints principales:</text><text fill="#000000" font-family="sans-serif" font-size="13" lengthAdjust="spacing" textLength="97.5444" x="1134.96" y="491.3397">- /auth/register</text><text fill="#000000" font-family="sans-serif" font-size="13" lengthAdjust="spacing" textLength="78.7935" x="1134.96" y="506.4725">- /auth/login</text><text fill="#000000" font-family="sans-serif" font-size="13" lengthAdjust="spacing" textLength="83.4844" x="1134.96" y="521.6053">- /auth/guest</text><text fill="#000000" font-family="sans-serif" font-size="13" lengthAdjust="spacing" textLength="67.7866" x="1134.96" y="536.7381">- /auth/me</text><text fill="#000000" font-family="sans-serif" font-size="13" lengthAdjust="spacing" textLength="134.1133" x="1134.96" y="551.871">- /auth/me/password</text><text fill="#000000" font-family="sans-serif" font-size="13" lengthAdjust="spacing" textLength="162.9316" x="1134.96" y="567.0038">- /auth/recover/password</text><text fill="#000000" font-family="sans-serif" font-size="13" lengthAdjust="spacing" textLength="127.0039" x="1134.96" y="582.1366">- /auth/notifications</text><text fill="#000000" font-family="sans-serif" font-size="13" lengthAdjust="spacing" textLength="178.2739" x="1134.96" y="597.2694">- /auth/me/transport-profile</text><text fill="#000000" font-family="sans-serif" font-size="13" lengthAdjust="spacing" textLength="4.1323" x="1134.96" y="612.4022">&#160;</text><text fill="#000000" font-family="sans-serif" font-size="13" lengthAdjust="spacing" textLength="277.0815" x="1134.96" y="627.535">El cliente Flutter consume estos endpoints</text><text fill="#000000" font-family="sans-serif" font-size="13" lengthAdjust="spacing" textLength="180.8892" x="1134.96" y="642.6678">a trav&#233;s de AuthApiService.</text></g><g class="entity" data-qualified-name="GMN32" data-source-line="62" id="ent0033"><path d="M846.46,317.74 L846.46,361.1384 A6,6 0 0 0 852.46,367.1384 L1175.542,367.1384 A6,6 0 0 0 1181.542,361.1384 L1181.542,321.74 L1171.542,311.74 L1070.59,311.74 L1244.63,220.22 L1062.59,311.74 L852.46,311.74 A6,6 0 0 0 846.46,317.74" fill="#FEFFDD" style="stroke:#181818;stroke-width:0.5;"/><path d="M1171.542,311.74 L1171.542,318.74 A3,3 0 0 0 1174.542,321.74 L1181.542,321.74 L1171.542,311.74" fill="#FEFFDD" style="stroke:#181818;stroke-width:0.5;"/><text fill="#000000" font-family="sans-serif" font-size="13" lengthAdjust="spacing" textLength="266.3286" x="852.46" y="328.8069">AuthViewModel mantiene la sesi&#243;n local,</text><text fill="#000000" font-family="sans-serif" font-size="13" lengthAdjust="spacing" textLength="314.082" x="852.46" y="343.9397">sincroniza token/usuario con SharedPreferences</text><text fill="#000000" font-family="sans-serif" font-size="13" lengthAdjust="spacing" textLength="250.4849" x="852.46" y="359.0725">y valida sesi&#243;n con /auth/me al iniciar.</text></g><!--link AuthScreen to AuthVM--><g class="link" data-entity-1="ent0003" data-entity-2="ent0004" data-link-type="dependency" data-source-line="13" id="lnk7"><path d="M1279,78.53 C1279,105.25 1279,150.14 1279,177" fill="none" id="AuthScreen-to-AuthVM" style="stroke:#181818;stroke-width:1;"/><polygon fill="#181818" points="1279,183,1283,174,1279,178,1275,174,1279,183" style="stroke:#181818;stroke-width:1;"/><text fill="#000000" font-family="sans-serif" font-size="13" lengthAdjust="spacing" textLength="143.7363" x="1316.4578" y="134.5169">login / register / guest</text><text fill="#000000" font-family="sans-serif" font-size="13" lengthAdjust="spacing" textLength="216.6519" x="1280" y="149.6497">perfil / contrase&#241;a / recuperaci&#243;n</text></g><!--link AuthVM to AuthApiService--><g class="link" data-entity-1="ent0004" data-entity-2="ent0005" data-link-type="dependency" data-source-line="14" id="lnk8"><path d="M1263.44,220.07 C1257.02,228.44 1250.31,238.96 1247,249.74 C1242.82,263.34 1243.3,268.01 1247,281.74 C1250.86,296.04 1255.9055,305.4994 1263.2855,316.2094" fill="none" id="AuthVM-to-AuthApiService" style="stroke:#181818;stroke-width:1;"/><polygon fill="#181818" points="1266.69,321.15,1264.8771,311.4694,1263.853,317.0328,1258.2896,316.0087,1266.69,321.15" style="stroke:#181818;stroke-width:1;"/><text fill="#000000" font-family="sans-serif" font-size="13" lengthAdjust="spacing" textLength="96.4399" x="1262.2441" y="262.8069">llamadas HTTP</text><text fill="#000000" font-family="sans-serif" font-size="13" lengthAdjust="spacing" textLength="124.9282" x="1248" y="277.9397">+ estado de sesi&#243;n</text></g><!--link AuthVM to SharedPrefs--><g class="link" data-entity-1="ent0004" data-entity-2="ent0006" data-link-type="dependency" data-source-line="15" id="lnk9"><path d="M1325.07,220.17 C1342.25,227.87 1361.36,237.88 1377,249.74 C1404.12,270.32 1425.3511,296.6402 1439.3911,316.0302" fill="none" id="AuthVM-to-SharedPrefs" style="stroke:#181818;stroke-width:1;"/><polygon fill="#181818" points="1442.91,320.89,1440.8715,311.2544,1439.9776,316.8402,1434.3918,315.9463,1442.91,320.89" style="stroke:#181818;stroke-width:1;"/><text fill="#000000" font-family="sans-serif" font-size="13" lengthAdjust="spacing" textLength="93.209" x="1447.4705" y="262.8069">token, usuario</text><text fill="#000000" font-family="sans-serif" font-size="13" lengthAdjust="spacing" textLength="166.1499" x="1411" y="277.9397">avatar e hidrataci&#243;n local</text></g><!--link AuthApiService to AuthBlueprint--><g class="link" data-entity-1="ent0005" data-entity-2="ent0011" data-link-type="dependency" data-source-line="38" id="lnk22"><path d="M1250.07,357.93 C1214.77,379.33 1155.32,417.82 1111,459.14 C1084.95,483.44 1063.3928,511.7701 1049.2728,531.7501" fill="none" id="AuthApiService-to-AuthBlueprint" style="stroke:#181818;stroke-width:1;"/><polygon fill="#181818" points="1045.81,536.65,1054.2708,531.6087,1048.6957,532.5667,1047.7376,526.9916,1045.81,536.65" style="stroke:#181818;stroke-width:1;"/><text fill="#000000" font-family="sans-serif" font-size="13" lengthAdjust="spacing" textLength="69.6719" x="1202.7644" y="410.2069">HTTP JSON</text><text fill="#000000" font-family="sans-serif" font-size="13" lengthAdjust="spacing" textLength="101.2007" x="1187" y="425.3397">(baseUrl :5001)</text></g><!--link AuthBlueprint to AuthService--><g class="link" data-entity-1="ent0011" data-entity-2="ent0012" data-link-type="dependency" data-source-line="39" id="lnk23"><path d="M1029.53,573.3 C1015.92,626.14 976.606,778.7595 962.986,831.6595" fill="none" id="AuthBlueprint-to-AuthService" style="stroke:#181818;stroke-width:1;"/><polygon fill="#181818" points="961.49,837.47,967.6077,829.7516,962.7367,832.6279,959.8603,827.7569,961.49,837.47" style="stroke:#181818;stroke-width:1;"/><text fill="#000000" font-family="sans-serif" font-size="13" lengthAdjust="spacing" textLength="123.6714" x="1001" y="693.8069">valida / transforma</text><text fill="#000000" font-family="sans-serif" font-size="13" lengthAdjust="spacing" textLength="67.6216" x="1029.0249" y="708.9397">la petici&#243;n</text></g><!--link AuthService to AuthRepository--><g class="link" data-entity-1="ent0012" data-entity-2="ent0013" data-link-type="dependency" data-source-line="40" id="lnk24"><path d="M958.15,874.46 C960.44,909.5 965.1682,981.6828 967.4582,1016.6728" fill="none" id="AuthService-to-AuthRepository" style="stroke:#181818;stroke-width:1;"/><polygon fill="#181818" points="967.85,1022.66,971.2537,1013.418,967.5235,1017.6707,963.2708,1013.9404,967.85,1022.66" style="stroke:#181818;stroke-width:1;"/><text fill="#000000" font-family="sans-serif" font-size="13" lengthAdjust="spacing" textLength="113.6929" x="985.7" y="959.0969">consulta / guarda</text><text fill="#000000" font-family="sans-serif" font-size="13" lengthAdjust="spacing" textLength="153.0928" x="966" y="974.2297">usuarios, notificaciones</text><text fill="#000000" font-family="sans-serif" font-size="13" lengthAdjust="spacing" textLength="112.8169" x="986.1379" y="989.3625">y perfil de tarjeta</text></g><!--link AuthRepository to MySql--><g class="link" data-entity-1="ent0013" data-entity-2="ent0014" data-link-type="dependency" data-source-line="41" id="lnk25"><path d="M904.83,1023.71 C882.09,1016.28 856.97,1006.17 836,993.03 C800.065,970.52 766.0725,937.1875 740.8163,909.1388 C728.1881,895.1144 717.7441,882.4109 710.3333,873.0417 C709.4069,871.8706 708.528,870.7515 707.6981,869.6885 C707.2831,869.157 706.8804,868.6395 706.4902,868.1365 C706.3927,868.0107 709.97,872.6294 709.874,872.5054" fill="none" id="AuthRepository-to-MySql" style="stroke:#181818;stroke-width:1;"/><polygon fill="#181818" points="706.1999,867.7619,708.5487,877.3266,709.2617,871.7149,714.8734,872.4278,706.1999,867.7619" style="stroke:#181818;stroke-width:1;"/><text fill="#000000" font-family="sans-serif" font-size="13" lengthAdjust="spacing" textLength="117.5015" x="837" y="974.0969">SQL con PyMySQL</text></g><!--link MySql to AuthRepository--><g class="link" data-entity-1="ent0014" data-entity-2="ent0013" data-link-type="dependency" data-source-line="44" id="lnk28"><path d="M654.4881,922.3692 C654.3899,922.5973 654.2922,922.8256 654.1952,923.0541 C654.0011,923.5111 653.8094,923.9689 653.62,924.4272 C652.8628,926.2607 652.1445,928.1047 651.4712,929.9555 C648.7779,937.3584 646.804,944.8694 645.9327,952.2488 C644.19,967.0075 646.8575,981.24 657,993.03 C688.3,1029.42 816.9615,1037.9551 898.8015,1039.7951" fill="none" id="MySql-to-AuthRepository" style="stroke:#181818;stroke-width:1;"/><polygon fill="#181818" points="904.8,1039.93,895.8922,1035.7287,899.8013,1039.8176,895.7124,1043.7267,904.8,1039.93" style="stroke:#181818;stroke-width:1;"/><text fill="#000000" font-family="sans-serif" font-size="13" lengthAdjust="spacing" textLength="110.5063" x="658" y="974.0969">filas y resultados</text></g><!--link AuthService to TokenCloud--><g class="link" data-entity-1="ent0012" data-entity-2="ent0021" data-link-type="dependency" data-source-line="42" id="lnk26"><path d="M917.75,837.3 C838.32,798.74 666,698.62 666,555.94 C666,200.6 666,200.6 666,200.6 C666,162.52 674.7716,125.5387 683.1416,97.5387" fill="none" id="AuthService-to-TokenCloud" style="stroke:#181818;stroke-width:1;"/><polygon fill="#181818" points="684.86,91.79,678.4499,99.2674,683.428,96.5805,686.1148,101.5586,684.86,91.79" style="stroke:#181818;stroke-width:1;"/><text fill="#000000" font-family="sans-serif" font-size="13" lengthAdjust="spacing" textLength="143.6919" x="667" y="336.5069">genera / parsea token</text><text fill="#000000" font-family="sans-serif" font-size="13" lengthAdjust="spacing" textLength="84.5" x="696.5959" y="351.6397">itsdangerous</text></g><!--link TokenCloud to AuthVM--><g class="link" data-entity-1="ent0021" data-entity-2="ent0004" data-link-type="dependency" data-source-line="43" id="lnk27"><path d="M789.48,83.71 C908.92,112.23 1105.5441,159.1765 1208.6541,183.7965" fill="none" id="TokenCloud-to-AuthVM" style="stroke:#181818;stroke-width:1;"/><polygon fill="#181818" points="1214.49,185.19,1206.6651,179.2092,1209.6267,184.0288,1204.8071,186.9904,1214.49,185.19" style="stroke:#181818;stroke-width:1;"/><text fill="#000000" font-family="sans-serif" font-size="13" lengthAdjust="spacing" textLength="104.1016" x="1084.9878" y="134.5169">token + usuario</text><text fill="#000000" font-family="sans-serif" font-size="13" lengthAdjust="spacing" textLength="126.0771" x="1074" y="149.6497">(session persistida)</text></g><?plantuml-src VLNDRXCn4BxlKuno0j4IGEAI0r91840K0WbS28gczYGnTMnZUrC5n0DnH3n2NuonTpVURGets_Fvy_nyCuxMGRHmOMEqMv3AauZAcYfSAkFGunQ4tJfhoCHPt6k2142prjI3X0rAUwNC6bQeGz_YK5pYclvzrTlQI66z8GyF7rLLUm56Pyx12rt7I7u4Fog0psTrtCo49p9V00EKRMVyfEZgt4hI1_kdyyvsvjIC_4u9EXZBKGBDDkX9JZsjo9CH53Akd8QAKULDE3rzqZu14z1shGoCESAr2kmnBzSrXRWmZlnAQTuBQwB7GDU_CGD5pIOKwlgFQOcPgICjhYLoZLkKxCpB-NowCFU0YJdV80a2XME2dizyEzfBCYTGXngziWk3EupeWM2ZfETbze034AYhdrLbE7-S_EchH8zrvBehqO0MveABGqQEKM_9ArooVRD4f-wx_QZBwjC6aqjsa0wCdkgQd5UyJ9SAkZiUedEUcmGSeALMDu0VoDcWelN5YNAKOf8SvWMd7aRd-zdxDnd5gsywExcoMdB5HdKW7vQCrDG8Rl1Gja9hvViVqtwUjepysQD1vvR6HhNYjALE-ZVb4R97p-f_spVTzb9oQScQCi5P7vVEMrOQ_JS2EC2XXH-2cNUMQMCeBt86XRQrXD4yQGbMohCURLBY3hMIhOIA73DdnZvBzwhgXgGxbHTDJBAsuVNitTk5kPDgzT5hc3n-yE3XtMe8xIwN_cYSuARAmQqiUxSm6i4HIpUtHn_VtIyIOGfkpb3hYBblqKicQ1icd41N8y65eB0mUsYRcYFcLlfA4QiRZEcHHc4JOCKbVfZki_gEd2c9Ol2QU10cDtWw1iAcUnT6nI1vSX9For3rBWo6KCR2lTBgTxWUWPrE_WQUIvobkrNZrgrPu9YuS7iUJZaPqeOq3o8FRhNUHB2hevPzRgIpl0oGJeHog2bCs70AuzJdusuWzexohEpjyw3ixRSqs8mTXd1blHom2hiZVvjfq513eeFsJrljfud-N8FGYXk4kj-c4SEMqfYr0QWBaS6O9BQx_XLIwOUYlb-bePUorUQi_L7RfEMFQF17mHPvj7AvWQNQDaupXayO6ZYRtXhrlPN0k2rgLjBHLyKNzbqRT5G9s8KEg44PRWRqnS-_?></g></svg>