<svg xmlns="http://www.w3.org/2000/svg" xmlns:xlink="http://www.w3.org/1999/xlink" contentStyleType="text/css" data-diagram-type="DESCRIPTION" height="946px" preserveAspectRatio="none" style="width:1939px;height:946px;background:#FFFFFF;" version="1.1" viewBox="0 0 1939 946" width="1939px" zoomAndPan="magnify"><?plantuml 1.2026.3beta6?><defs/><g><!--cluster App Flutter--><g class="cluster" data-qualified-name="App Flutter" data-source-line="7" id="ent0002"><rect fill="none" height="190" rx="6" ry="6" style="stroke:#181818;stroke-width:1;" width="982.6" x="7" y="742"/><text fill="#000000" font-family="sans-serif" font-size="14" font-weight="700" lengthAdjust="spacing" textLength="89.8652" x="453.3674" y="756.9951">App Flutter</text></g><!--cluster BusApiBackend--><g class="cluster" data-qualified-name="BusApiBackend" data-source-line="20" id="ent0012"><polygon fill="none" points="1132.6,435,1142.6,425,1471.83,425,1471.83,843,1461.83,853,1132.6,853,1132.6,435" style="stroke:#181818;stroke-width:1;"/><line style="stroke:#181818;stroke-width:1;" x1="1461.83" x2="1471.83" y1="435" y2="425"/><line style="stroke:#181818;stroke-width:1;" x1="1132.6" x2="1461.83" y1="435" y2="435"/><line style="stroke:#181818;stroke-width:1;" x1="1461.83" x2="1461.83" y1="435" y2="853"/><text fill="#000000" font-family="sans-serif" font-size="14" font-weight="700" lengthAdjust="spacing" textLength="83.8906" x="1256.2697" y="450.9951">API de bus</text><text fill="#000000" font-family="sans-serif" font-size="14" font-weight="700" lengthAdjust="spacing" textLength="264.5986" x="1165.9157" y="467.292">backend/almeria_busmaps_api.py</text></g><!--cluster GtfsData--><g class="cluster" data-qualified-name="GtfsData" data-source-line="28" id="ent0018"><path d="M1212.77,16 C1212.77,6 1301.71,6 1301.71,6 C1301.71,6 1390.65,6 1390.65,16 L1390.65,375 C1390.65,385 1301.71,385 1301.71,385 C1301.71,385 1212.77,385 1212.77,375 L1212.77,16" fill="none" style="stroke:#181818;stroke-width:1;"/><path d="M1212.77,16 C1212.77,26 1301.71,26 1301.71,26 C1301.71,26 1390.65,26 1390.65,16" fill="none" style="stroke:#181818;stroke-width:1;"/><text fill="#000000" font-family="sans-serif" font-size="14" font-weight="700" lengthAdjust="spacing" textLength="86.2354" x="1258.5923" y="40.9951">GTFS ALSA</text><text fill="#000000" font-family="sans-serif" font-size="14" font-weight="700" lengthAdjust="spacing" textLength="147.998" x="1227.711" y="57.292">alsa-autobuses.zip</text></g><!--entity MapView--><g class="entity" data-qualified-name="App Flutter.MapView" data-source-line="8" id="ent0003"><rect fill="#F1F1F1" height="36.2969" rx="6" ry="6" style="stroke:#181818;stroke-width:0.5;" width="158.1885" x="23" y="862.85"/><text fill="#000000" font-family="sans-serif" font-size="14" lengthAdjust="spacing" textLength="138.1885" x="33" y="885.8451">Mapa tur&#237;stico / bus</text></g><!--entity LinesView--><g class="entity" data-qualified-name="App Flutter.LinesView" data-source-line="9" id="ent0004"><rect fill="#F1F1F1" height="36.2969" rx="6" ry="6" style="stroke:#181818;stroke-width:0.5;" width="65.0488" x="69.57" y="790.85"/><text fill="#000000" font-family="sans-serif" font-size="14" lengthAdjust="spacing" textLength="45.0488" x="79.57" y="813.8451">L&#237;neas</text></g><!--entity MapVM--><g class="entity" data-qualified-name="App Flutter.MapVM" data-source-line="10" id="ent0005"><rect fill="#F1F1F1" height="36.2969" rx="6" ry="6" style="stroke:#181818;stroke-width:0.5;" width="125.1094" x="455.4" y="862.85"/><text fill="#000000" font-family="sans-serif" font-size="14" lengthAdjust="spacing" textLength="105.1094" x="465.4" y="885.8451">MapViewModel</text></g><!--entity LinesVM--><g class="entity" data-qualified-name="App Flutter.LinesVM" data-source-line="11" id="ent0006"><rect fill="#F1F1F1" height="36.2969" rx="6" ry="6" style="stroke:#181818;stroke-width:0.5;" width="132.0342" x="451.94" y="790.85"/><text fill="#000000" font-family="sans-serif" font-size="14" lengthAdjust="spacing" textLength="112.0342" x="461.94" y="813.8451">LinesViewModel</text></g><!--entity BusApiService--><g class="entity" data-qualified-name="App Flutter.BusApiService" data-source-line="12" id="ent0007"><rect fill="#F1F1F1" height="36.2969" rx="6" ry="6" style="stroke:#181818;stroke-width:0.5;" width="119.8662" x="853.73" y="826.85"/><text fill="#000000" font-family="sans-serif" font-size="14" lengthAdjust="spacing" textLength="99.8662" x="863.73" y="849.8451">BusApiService</text></g><!--entity LinesEndpoint--><g class="entity" data-qualified-name="BusApiBackend.LinesEndpoint" data-source-line="21" id="ent0013"><rect fill="#F1F1F1" height="36.2969" rx="6" ry="6" style="stroke:#181818;stroke-width:0.5;" width="89.9727" x="1256.72" y="488.85"/><text fill="#000000" font-family="sans-serif" font-size="14" lengthAdjust="spacing" textLength="69.9727" x="1266.72" y="511.8451">GET /lines</text></g><!--entity StopsByLineEndpoint--><g class="entity" data-qualified-name="BusApiBackend.StopsByLineEndpoint" data-source-line="22" id="ent0014"><rect fill="#F1F1F1" height="36.2969" rx="6" ry="6" style="stroke:#181818;stroke-width:0.5;" width="199.792" x="1201.81" y="559.85"/><text fill="#000000" font-family="sans-serif" font-size="14" lengthAdjust="spacing" textLength="179.792" x="1211.81" y="582.8451">GET /lines/{line_id}/stops</text></g><!--entity LineArrivalsEndpoint--><g class="entity" data-qualified-name="BusApiBackend.LineArrivalsEndpoint" data-source-line="23" id="ent0015"><rect fill="#F1F1F1" height="36.2969" rx="6" ry="6" style="stroke:#181818;stroke-width:0.5;" width="214.291" x="1194.56" y="630.85"/><text fill="#000000" font-family="sans-serif" font-size="14" lengthAdjust="spacing" textLength="194.291" x="1204.56" y="653.8451">GET /lines/{line_id}/arrivals</text></g><!--entity StopDetailEndpoint--><g class="entity" data-qualified-name="BusApiBackend.StopDetailEndpoint" data-source-line="24" id="ent0016"><rect fill="#F1F1F1" height="36.2969" rx="6" ry="6" style="stroke:#181818;stroke-width:0.5;" width="167.4854" x="1217.97" y="701.85"/><text fill="#000000" font-family="sans-serif" font-size="14" lengthAdjust="spacing" textLength="147.4854" x="1227.97" y="724.8451">GET /stops/{stop_id}</text></g><!--entity StopArrivalsEndpoint--><g class="entity" data-qualified-name="BusApiBackend.StopArrivalsEndpoint" data-source-line="25" id="ent0017"><rect fill="#F1F1F1" height="36.2969" rx="6" ry="6" style="stroke:#181818;stroke-width:0.5;" width="224.2305" x="1189.6" y="772.85"/><text fill="#000000" font-family="sans-serif" font-size="14" lengthAdjust="spacing" textLength="204.2305" x="1199.6" y="795.8451">GET /stops/{stop_id}/arrivals</text></g><!--entity RoutesTxt--><g class="entity" data-qualified-name="GtfsData.RoutesTxt" data-source-line="29" id="ent0019"><rect fill="#F1F1F1" height="39.2969" rx="6" ry="6" style="stroke:#181818;stroke-width:0.5;" width="98.3047" x="1252.56" y="99.35"/><polygon fill="#F1F1F1" points="1333.8647,104.35,1333.8647,118.35,1345.8647,118.35,1345.8647,110.35,1339.8647,104.35,1333.8647,104.35" style="stroke:#181818;stroke-width:0.5;"/><line style="stroke:#181818;stroke-width:0.5;" x1="1339.8647" x2="1339.8647" y1="104.35" y2="110.35"/><line style="stroke:#181818;stroke-width:0.5;" x1="1345.8647" x2="1339.8647" y1="110.35" y2="110.35"/><text fill="#000000" font-family="sans-serif" font-size="14" lengthAdjust="spacing" textLength="68.3047" x="1262.56" y="125.3451">routes.txt</text></g><!--entity StopsTxt--><g class="entity" data-qualified-name="GtfsData.StopsTxt" data-source-line="30" id="ent0020"><rect fill="#F1F1F1" height="39.2969" rx="6" ry="6" style="stroke:#181818;stroke-width:0.5;" width="91.2432" x="1256.09" y="173.35"/><polygon fill="#F1F1F1" points="1330.3332,178.35,1330.3332,192.35,1342.3332,192.35,1342.3332,184.35,1336.3332,178.35,1330.3332,178.35" style="stroke:#181818;stroke-width:0.5;"/><line style="stroke:#181818;stroke-width:0.5;" x1="1336.3332" x2="1336.3332" y1="178.35" y2="184.35"/><line style="stroke:#181818;stroke-width:0.5;" x1="1342.3332" x2="1336.3332" y1="184.35" y2="184.35"/><text fill="#000000" font-family="sans-serif" font-size="14" lengthAdjust="spacing" textLength="61.2432" x="1266.09" y="199.3451">stops.txt</text></g><!--entity TripsTxt--><g class="entity" data-qualified-name="GtfsData.TripsTxt" data-source-line="31" id="ent0021"><rect fill="#F1F1F1" height="39.2969" rx="6" ry="6" style="stroke:#181818;stroke-width:0.5;" width="85.0293" x="1259.2" y="247.35"/><polygon fill="#F1F1F1" points="1327.2293,252.35,1327.2293,266.35,1339.2293,266.35,1339.2293,258.35,1333.2293,252.35,1327.2293,252.35" style="stroke:#181818;stroke-width:0.5;"/><line style="stroke:#181818;stroke-width:0.5;" x1="1333.2293" x2="1333.2293" y1="252.35" y2="258.35"/><line style="stroke:#181818;stroke-width:0.5;" x1="1339.2293" x2="1333.2293" y1="258.35" y2="258.35"/><text fill="#000000" font-family="sans-serif" font-size="14" lengthAdjust="spacing" textLength="55.0293" x="1269.2" y="273.3451">trips.txt</text></g><!--entity StopTimesTxt--><g class="entity" data-qualified-name="GtfsData.StopTimesTxt" data-source-line="32" id="ent0022"><rect fill="#F1F1F1" height="39.2969" rx="6" ry="6" style="stroke:#181818;stroke-width:0.5;" width="129.873" x="1236.77" y="321.35"/><polygon fill="#F1F1F1" points="1349.643,326.35,1349.643,340.35,1361.643,340.35,1361.643,332.35,1355.643,326.35,1349.643,326.35" style="stroke:#181818;stroke-width:0.5;"/><line style="stroke:#181818;stroke-width:0.5;" x1="1355.643" x2="1355.643" y1="326.35" y2="332.35"/><line style="stroke:#181818;stroke-width:0.5;" x1="1361.643" x2="1355.643" y1="332.35" y2="332.35"/><text fill="#000000" font-family="sans-serif" font-size="14" lengthAdjust="spacing" textLength="99.873" x="1246.77" y="347.3451">stop_times.txt</text></g><!--entity LogicalData--><g class="entity" data-qualified-name="LogicalData" data-source-line="35" id="ent0023"><path d="M1660.0432,425.4774 C1666.2749,417.2719 1671.3423,417.5272 1676.7601,426.2797 C1680.0662,418.8699 1687.6842,418.07 1692.5189,424.5447 C1698.162,415.3022 1704.6908,415.6511 1710.165,424.7077 C1716.0962,416.8578 1721.5788,415.4094 1728.5437,423.5172 C1732.59,416.3979 1738.2817,415.0837 1743.0848,422.7741 C1748.8246,413.8215 1754.6743,413.8251 1760.9587,422.2126 C1766.7455,413.5141 1772.8377,413.9227 1777.65,423.1213 C1783.4277,415.1189 1789.3221,416.0113 1794.0075,424.2232 C1798.1317,416.6352 1805.6145,414.7334 1810.9923,422.8691 C1816.2137,414.4023 1823.4171,414.2164 1828.2906,423.2136 C1832.7397,415.839 1841.2014,414.5371 1845.1163,423.7552 C1849.651,417.1278 1856.3356,417.4978 1860.3725,424.3199 C1867.0712,416.0609 1874.3744,418.1474 1879.1277,426.5144 C1881.6416,418.8932 1888.7348,417.8264 1893.7218,423.8739 C1907.4005,427.5903 1912.9387,438.5855 1901.2528,449.6987 C1910.1733,460.1773 1905.1167,467.6136 1893.4856,470.3697 C1890.1201,478.5214 1885.3633,479.5141 1879.389,472.8523 C1874.8133,480.9953 1868.9383,482.7212 1862.4799,474.8388 C1857.14,481.9405 1850.597,483.4503 1845.6462,474.4324 C1840.5717,484.3207 1834.2273,482.8888 1828.1494,475.4453 C1822.4061,485.2021 1816.1695,483.5171 1810.2942,475.5785 C1806.8723,483.2458 1800.9788,483.742 1795.5719,477.7121 C1791.4365,487.0093 1782.577,486.6818 1777.0444,479.2605 C1771.644,486.8541 1764.6963,487.7557 1759.8958,478.6446 C1753.0654,485.6405 1747.7106,485.8477 1742.4393,476.9339 C1736.9546,483.8413 1731.731,484.3012 1726.6152,476.536 C1721.2816,483.2911 1715.3838,481.0729 1711.8612,474.5271 C1706.3884,482.677 1698.5386,482.3433 1694.5682,473.0386 C1688.1386,482.3797 1681.5857,482.8645 1675.6723,472.5426 C1672.3042,480.0997 1665.5818,478.8774 1661.5744,473.2249 C1647.95,468.1334 1647.0796,459.057 1656.7969,449.3037 C1645.7915,439.4392 1648.8538,432.3179 1660.0432,425.4774" fill="#F1F1F1" style="stroke:#181818;stroke-width:0.5;"/><text fill="#000000" font-family="sans-serif" font-size="14" lengthAdjust="spacing" textLength="145.2637" x="1665.68" y="443.6951">Base de datos l&#243;gica</text><text fill="#000000" font-family="sans-serif" font-size="14" lengthAdjust="spacing" textLength="220.377" x="1665.68" y="459.992">paradas, l&#237;neas, trips y tiempos</text></g><g class="entity" data-qualified-name="GMN35" data-source-line="50" id="ent0036"><path d="M1626.83,777.9 L1626.83,912.0953 A6,6 0 0 0 1632.83,918.0953 L1918.9115,918.0953 A6,6 0 0 0 1924.9115,912.0953 L1924.9115,781.9 L1914.9115,771.9 L1632.83,771.9 A6,6 0 0 0 1626.83,777.9" fill="#FEFFDD" style="stroke:#181818;stroke-width:0.5;"/><path d="M1914.9115,771.9 L1914.9115,778.9 A3,3 0 0 0 1917.9115,781.9 L1924.9115,781.9 L1914.9115,771.9" fill="#FEFFDD" style="stroke:#181818;stroke-width:1;"/><text fill="#000000" font-family="sans-serif" font-size="13" lengthAdjust="spacing" textLength="143.9521" x="1632.83" y="788.9669">Endpoints principales:</text><text fill="#000000" font-family="sans-serif" font-size="13" lengthAdjust="spacing" textLength="43.437" x="1632.83" y="804.0997">- /lines</text><text fill="#000000" font-family="sans-serif" font-size="13" lengthAdjust="spacing" textLength="145.4121" x="1632.83" y="819.2325">- /lines/{line_id}/stops</text><text fill="#000000" font-family="sans-serif" font-size="13" lengthAdjust="spacing" textLength="158.8755" x="1632.83" y="834.3653">- /lines/{line_id}/arrivals</text><text fill="#000000" font-family="sans-serif" font-size="13" lengthAdjust="spacing" textLength="115.4131" x="1632.83" y="849.4981">- /stops/{stop_id}</text><text fill="#000000" font-family="sans-serif" font-size="13" lengthAdjust="spacing" textLength="168.105" x="1632.83" y="864.631">- /stops/{stop_id}/arrivals</text><text fill="#000000" font-family="sans-serif" font-size="13" lengthAdjust="spacing" textLength="4.1323" x="1632.83" y="879.7638">&#160;</text><text fill="#000000" font-family="sans-serif" font-size="13" lengthAdjust="spacing" textLength="277.0815" x="1632.83" y="894.8966">El cliente Flutter consume estos endpoints</text><text fill="#000000" font-family="sans-serif" font-size="13" lengthAdjust="spacing" textLength="174.3511" x="1632.83" y="910.0294">a trav&#233;s de BusApiService.</text></g><g class="entity" data-qualified-name="GMN38" data-source-line="62" id="ent0039"><path d="M366.19,661.73 L366.19,720.2613 A6,6 0 0 0 372.19,726.2613 L663.7305,726.2613 A6,6 0 0 0 669.7305,720.2613 L669.7305,665.73 L659.7305,655.73 L372.19,655.73 A6,6 0 0 0 366.19,661.73" fill="#FEFFDD" style="stroke:#181818;stroke-width:0.5;"/><path d="M659.7305,655.73 L659.7305,662.73 A3,3 0 0 0 662.7305,665.73 L669.7305,665.73 L659.7305,655.73" fill="#FEFFDD" style="stroke:#181818;stroke-width:1;"/><text fill="#000000" font-family="sans-serif" font-size="13" lengthAdjust="spacing" textLength="265.5352" x="372.19" y="672.7969">El c&#225;lculo de rutas peatonales usa OSRM</text><text fill="#000000" font-family="sans-serif" font-size="13" lengthAdjust="spacing" textLength="259.6636" x="372.19" y="687.9297">desde el lado cliente cuando hace falta.</text><text fill="#000000" font-family="sans-serif" font-size="13" lengthAdjust="spacing" textLength="282.5405" x="372.19" y="703.0625">El backend de bus aporta solo datos de red</text><text fill="#000000" font-family="sans-serif" font-size="13" lengthAdjust="spacing" textLength="161.2559" x="372.19" y="718.1953">y llegadas programadas.</text></g><!--link MapView to MapVM--><g class="link" data-entity-1="ent0003" data-entity-2="ent0005" data-link-type="dependency" data-source-line="14" id="lnk8"><path d="M181.61,883.43 C191.57,883.67 201.61,883.87 211.19,884 C295.72,885.17 387.4113,883.8534 449.1713,882.5834" fill="none" id="MapView-to-MapVM" style="stroke:#181818;stroke-width:1;"/><polygon fill="#181818" points="455.17,882.46,446.0897,878.6459,450.1711,882.5628,446.2541,886.6442,455.17,882.46" style="stroke:#181818;stroke-width:1;"/><text fill="#000000" font-family="sans-serif" font-size="13" lengthAdjust="spacing" textLength="105.4028" x="221.1082" y="865.0669">estado de mapa</text><text fill="#000000" font-family="sans-serif" font-size="13" lengthAdjust="spacing" textLength="112.2393" x="217.69" y="880.1997">+ rutas tur&#237;sticas</text></g><!--link LinesView to LinesVM--><g class="link" data-entity-1="ent0004" data-entity-2="ent0006" data-link-type="dependency" data-source-line="15" id="lnk9"><path d="M134.88,809 C202.46,809 355.55,809 445.69,809" fill="none" id="LinesView-to-LinesVM" style="stroke:#181818;stroke-width:1;"/><polygon fill="#181818" points="451.69,809,442.69,805,446.69,809,442.69,813,451.69,809" style="stroke:#181818;stroke-width:1;"/><text fill="#000000" font-family="sans-serif" font-size="13" lengthAdjust="spacing" textLength="103.7588" x="222.1844" y="790.0669">listado y detalle</text><text fill="#000000" font-family="sans-serif" font-size="13" lengthAdjust="spacing" textLength="123.7476" x="212.19" y="805.1997">de l&#237;neas / paradas</text></g><!--link MapVM to BusApiService--><g class="link" data-entity-1="ent0005" data-entity-2="ent0007" data-link-type="dependency" data-source-line="16" id="lnk10"><path d="M580.72,889.31 C642.84,895.87 741,901.34 823.73,884 C842.87,879.99 857.5356,874.2473 873.7456,866.2773" fill="none" id="MapVM-to-BusApiService" style="stroke:#181818;stroke-width:1;"/><polygon fill="#181818" points="879.13,863.63,869.2885,864.0114,874.643,865.8361,872.8183,871.1906,879.13,863.63" style="stroke:#181818;stroke-width:1;"/><text fill="#000000" font-family="sans-serif" font-size="13" lengthAdjust="spacing" textLength="97.3604" x="713.5047" y="865.0669">consulta l&#237;neas</text><text fill="#000000" font-family="sans-serif" font-size="13" lengthAdjust="spacing" textLength="122.9097" x="700.73" y="880.1997">paradas y llegadas</text></g><!--link LinesVM to BusApiService--><g class="link" data-entity-1="ent0006" data-entity-2="ent0007" data-link-type="dependency" data-source-line="17" id="lnk11"><path d="M584.41,814.99 C659.41,821.84 775.2649,832.4334 847.5249,839.0434" fill="none" id="LinesVM-to-BusApiService" style="stroke:#181818;stroke-width:1;"/><polygon fill="#181818" points="853.5,839.59,844.9018,834.7868,848.5208,839.1345,844.173,842.7535,853.5,839.59" style="stroke:#181818;stroke-width:1;"/><text fill="#000000" font-family="sans-serif" font-size="13" lengthAdjust="spacing" textLength="97.3604" x="713.5047" y="806.0669">consulta l&#237;neas</text><text fill="#000000" font-family="sans-serif" font-size="13" lengthAdjust="spacing" textLength="122.9097" x="700.73" y="821.1997">paradas y llegadas</text></g><!--link BusApiService to BusApiBackend--><g class="link" data-entity-1="ent0007" data-entity-2="ent0012" data-link-type="dependency" data-source-line="37" id="lnk24"><path d="M973.71,845 C1000.325,845 1033.6444,845 1068.7564,845 C1086.3124,845 1104.3166,845 1122.155,845 C1124.3848,845 1126.612,845 1128.8354,845 C1129.9471,845 1125.0579,845 1126.1675,845" fill="none" id="BusApiService-to-BusApiBackend" style="stroke:#181818;stroke-width:1;"/><polygon fill="#181818" points="1132.1675,845,1123.1675,841,1127.1675,845,1123.1675,849,1132.1675,845" style="stroke:#181818;stroke-width:1;"/><text fill="#000000" font-family="sans-serif" font-size="13" lengthAdjust="spacing" textLength="69.6719" x="1022.3644" y="826.0669">HTTP JSON</text><text fill="#000000" font-family="sans-serif" font-size="13" lengthAdjust="spacing" textLength="101.2007" x="1006.6" y="841.1997">(baseUrl :5000)</text></g><!--link LinesEndpoint to LogicalData--><g class="link" data-entity-1="ent0013" data-entity-2="ent0023" data-link-type="dependency" data-source-line="38" id="lnk25"><path d="M1347.13,501.36 C1415.83,492.63 1544.3879,476.2865 1644.3079,463.5865" fill="none" id="LinesEndpoint-to-LogicalData" style="stroke:#181818;stroke-width:1;"/><polygon fill="#181818" points="1650.26,462.83,1640.8275,459.9967,1645.2999,463.4604,1641.8362,467.9329,1650.26,462.83" style="stroke:#181818;stroke-width:1;"/></g><!--link StopsByLineEndpoint to LogicalData--><g class="link" data-entity-1="ent0014" data-entity-2="ent0023" data-link-type="dependency" data-source-line="39" id="lnk26"><path d="M1401.74,561.85 C1429.74,556.59 1460.13,550.21 1487.83,543 C1556.85,525.02 1627.7437,501.1396 1684.4137,480.7696" fill="none" id="StopsByLineEndpoint-to-LogicalData" style="stroke:#181818;stroke-width:1;"/><polygon fill="#181818" points="1690.06,478.74,1680.2375,478.0201,1685.3547,480.4313,1682.9436,485.5486,1690.06,478.74" style="stroke:#181818;stroke-width:1;"/></g><!--link LineArrivalsEndpoint to LogicalData--><g class="link" data-entity-1="ent0015" data-entity-2="ent0023" data-link-type="dependency" data-source-line="40" id="lnk27"><path d="M1409.16,635.27 C1435.35,630.16 1463,623.26 1487.83,614 C1580.2,579.56 1672.3254,520.0519 1726.5854,482.0519" fill="none" id="LineArrivalsEndpoint-to-LogicalData" style="stroke:#181818;stroke-width:1;"/><polygon fill="#181818" points="1731.5,478.61,1721.8335,480.4964,1727.4045,481.4782,1726.4226,487.0492,1731.5,478.61" style="stroke:#181818;stroke-width:1;"/></g><!--link StopDetailEndpoint to LogicalData--><g class="link" data-entity-1="ent0016" data-entity-2="ent0023" data-link-type="dependency" data-source-line="41" id="lnk28"><path d="M1385.55,710.8 C1418.15,705.53 1455.45,697.4 1487.83,685 C1602.09,641.25 1700.2209,536.9659 1745.7809,482.9659" fill="none" id="StopDetailEndpoint-to-LogicalData" style="stroke:#181818;stroke-width:1;"/><polygon fill="#181818" points="1749.65,478.38,1740.7891,482.6794,1746.4257,482.2015,1746.9036,487.8382,1749.65,478.38" style="stroke:#181818;stroke-width:1;"/></g><!--link StopArrivalsEndpoint to LogicalData--><g class="link" data-entity-1="ent0017" data-entity-2="ent0023" data-link-type="dependency" data-source-line="42" id="lnk29"><path d="M1414.14,776.61 C1438.87,771.58 1464.61,764.89 1487.83,756 C1540.71,735.75 1555.06,728.25 1596.83,690 C1667.79,625.01 1725.7127,533.1019 1754.3727,483.6219" fill="none" id="StopArrivalsEndpoint-to-LogicalData" style="stroke:#181818;stroke-width:1;"/><polygon fill="#181818" points="1757.38,478.43,1749.4078,484.213,1754.8739,482.7566,1756.3304,488.2228,1757.38,478.43" style="stroke:#181818;stroke-width:1;"/></g><!--link LogicalData to GtfsData--><g class="link" data-entity-1="ent0023" data-entity-2="ent0018" data-link-type="dependency" data-source-line="43" id="lnk30"><path d="M1763.07,415.46 C1732.2,338.49 1640.68,142.92 1487.83,83 C1468.88,75.57 1448.0456,70.6462 1427.402,67.4452 C1417.0802,65.8446 1406.8061,64.6747 1396.8391,63.8376 C1395.5932,63.7329 1394.3522,63.6335 1393.1164,63.539 C1392.4985,63.4918 1397.8661,63.8811 1397.251,63.8363" fill="none" id="LogicalData-to-GtfsData" style="stroke:#181818;stroke-width:1;"/><polygon fill="#181818" points="1391.2668,63.4011,1399.9529,68.0434,1396.2536,63.7638,1400.5332,60.0645,1391.2668,63.4011" style="stroke:#181818;stroke-width:1;"/><text fill="#000000" font-family="sans-serif" font-size="13" lengthAdjust="spacing" textLength="99.7471" x="1496.83" y="84.0669">lee y normaliza</text></g><!--link RoutesTxt to LogicalData--><g class="link" data-entity-1="ent0019" data-entity-2="ent0023" data-link-type="dependency" data-source-line="44" id="lnk31"><path d="M1351.2,122.96 C1389.57,127.43 1443.83,136.76 1487.83,156 C1614.94,211.58 1712.084,346.9211 1752.424,410.1811" fill="none" id="RoutesTxt-to-LogicalData" style="stroke:#181818;stroke-width:1;"/><polygon fill="#181818" points="1755.65,415.24,1754.1836,405.5009,1752.9617,411.0242,1747.4384,409.8023,1755.65,415.24" style="stroke:#181818;stroke-width:1;"/></g><!--link StopsTxt to LogicalData--><g class="link" data-entity-1="ent0020" data-entity-2="ent0023" data-link-type="dependency" data-source-line="45" id="lnk32"><path d="M1347.49,197.06 C1385.88,201.67 1442.06,211.16 1487.83,230 C1594.12,273.76 1691.6561,362.4787 1740.5061,411.2987" fill="none" id="StopsTxt-to-LogicalData" style="stroke:#181818;stroke-width:1;"/><polygon fill="#181818" points="1744.75,415.54,1741.2116,406.3487,1741.2134,412.0056,1735.5565,412.0073,1744.75,415.54" style="stroke:#181818;stroke-width:1;"/></g><!--link TripsTxt to LogicalData--><g class="link" data-entity-1="ent0021" data-entity-2="ent0023" data-link-type="dependency" data-source-line="46" id="lnk33"><path d="M1344.71,272.16 C1382.78,277.59 1440.07,287.66 1487.83,304 C1573.29,333.25 1660.5218,379.8635 1716.7618,412.2835" fill="none" id="TripsTxt-to-LogicalData" style="stroke:#181818;stroke-width:1;"/><polygon fill="#181818" points="1721.96,415.28,1716.1604,407.3198,1717.6282,412.7829,1712.1651,414.2507,1721.96,415.28" style="stroke:#181818;stroke-width:1;"/></g><!--link StopTimesTxt to LogicalData--><g class="link" data-entity-1="ent0022" data-entity-2="ent0023" data-link-type="dependency" data-source-line="47" id="lnk34"><path d="M1366.88,355.41 C1439.5,371.71 1553.6558,397.3354 1644.7658,417.7954" fill="none" id="StopTimesTxt-to-LogicalData" style="stroke:#181818;stroke-width:1;"/><polygon fill="#181818" points="1650.62,419.11,1642.7151,413.2352,1645.7415,418.0145,1640.9623,421.0408,1650.62,419.11" style="stroke:#181818;stroke-width:1;"/></g><!--link BusApiBackend to GMN35--><g class="link" data-entity-1="ent0012" data-entity-2="ent0036" data-link-type="association" data-source-line="50" id="lnk37"><path d="M1473.3823,845 C1473.9329,845 1474.484,845 1475.0356,845 C1476.1388,845 1477.2441,845 1478.3512,845 C1482.7797,845 1487.2387,845 1491.7212,845 C1500.6863,845 1509.7458,845 1518.845,845 C1555.2419,845 1592.275,845 1626.45,845" fill="none" id="BusApiBackend-GMN35" style="stroke:#181818;stroke-width:1;stroke-dasharray:7,7;"/></g><!--link MapVM to GMN38--><g class="link" data-entity-1="ent0005" data-entity-2="ent0039" data-link-type="association" data-source-line="62" id="lnk40"><path d="M454.97,887.03 C397.83,888.61 316.21,880.35 273.69,827.5 C234.86,779.24 295.3,745.2 365.76,723.17" fill="none" id="MapVM-GMN38" style="stroke:#181818;stroke-width:1;stroke-dasharray:7,7;"/></g><?plantuml-src dLN9RXin3BtFLn0-jMXYfmLwoQ60WonjaJH1xFPI5mOzGpj2P6aWQR8Y7zDZ3pdr4_9Z9JMBFScasybZyV5HV7oIDCq310jEBSu2PCfH6fGrYJzN9aU7IqZjChU6J1Y5QqqW03GBJMiGVuQPlLHc0NFKVZsIOtgE2te-rTd2PAbrXXoyVfCaLGBqXdaE-xe8WLmFRXE0hqUO8uJ2FTpxe58B0vWL_XkW1uvyKNGfeCE7UqDOBXygGxuEL9WZcv5kaevYIWrRnSgb6Dqf_31N8t8NAgKORAqaZAceONFpNSaAsq0-i2QG4InvsnFp2bmHEBdPFthER4h7tAegPsjLfbypGK2jQMAOIPUzSUEYNHOPodgItTeMSwJM-487hDCcfifYLcPSL0HrqV-ck4iImyBnn4u-IByyb8cPyHZ9P0FKIt8Afxp8ElWfvggVN_TMCkwKm3ZXncdGEzWRmq3BrdhDFFPCbbjbmdF8mQtyJ5LsD_31vcNcIBvsheNW7_BHENN1LcwA3wk5tt34ceDR-H6EflekJr3flqzi5nU69yLPyWm3pj2px0VZ_H4C3qV3YM4CRc8HBCjDld-ZyiXn4EP-b_5HP7H1pJ7budpq0gF2LOYeq_XtV1LQeBYv1XFLV0m9Jgr1nlAlYsKQr9BQL6DP4Imtb6fRPD3RaPxOHToVzUoxdmi-AetlDcedRa2ioZuCYbZEQb9Mq5fwJPAscLVshXst3U_7unFuE3h-D34lHClFJiFsswsjhPT9ot3buLpZxZ3L4qoNQpg9slxeXFoHP-qxnfg9yrL2n2ePwvQerGqcpPYxk-eAr2FjpAXd-2J8jqAWwbsnyxRuR8ww5m-vKoPLEMhosnpOh8xZskVZazqTgizD6NrqgZeNLoco8GsfLdmigNvtoljlINAPincfth5Oc_s75my_l7YrvRH-8kQItYi5PZO4knG9wXT7AZryrscXumDHFWmviUEDY025HpWUdGeq8yy8qg3bEQZtbnPe-EyPih7vnGtOBrchMxUwXG5pwzW3tagTU9wa6edwg_kRvRSBVedbUxNtNm00?></g></svg>